<svg xmlns="http://www.w3.org/2000/svg" viewBox="0 0 320 180">
  <rect width="320" height="180" fill="#f8fafc"/>
  <line x1="42" y1="142" x2="284" y2="142" stroke="#334155" stroke-width="2"/>
  <line x1="42" y1="142" x2="42" y2="28" stroke="#334155" stroke-width="2"/>
  <path d="M48 136 C92 130 126 108 154 84 C186 56 226 38 278 34" fill="none" stroke="#007079" stroke-width="5" stroke-linecap="round"/>
  <path d="M48 38 C94 42 132 60 162 84 C194 110 230 130 278 136" fill="none" stroke="#d55e00" stroke-width="5" stroke-linecap="round"/>
  <path d="M52 118 C96 108 136 92 174 76 C210 60 246 52 278 50" fill="none" stroke="#6b7280" stroke-width="2" stroke-dasharray="8 5"/>
  <circle cx="92" cy="130" r="4" fill="#007079"/>
  <circle cx="186" cy="56" r="4" fill="#007079"/>
  <circle cx="132" cy="60" r="4" fill="#d55e00"/>
  <circle cx="230" cy="130" r="4" fill="#d55e00"/>
</svg>
