<?xml version="1.0" encoding="UTF-8" standalone="no"?>
<!-- Created with Inkscape (http://www.inkscape.org/) -->

<svg
   xmlns:dc="http://purl.org/dc/elements/1.1/"
   xmlns:cc="http://creativecommons.org/ns#"
   xmlns:rdf="http://www.w3.org/1999/02/22-rdf-syntax-ns#"
   xmlns:svg="http://www.w3.org/2000/svg"
   xmlns="http://www.w3.org/2000/svg"
   xmlns:sodipodi="http://sodipodi.sourceforge.net/DTD/sodipodi-0.dtd"
   xmlns:inkscape="http://www.inkscape.org/namespaces/inkscape"
   preserveAspectRatio="none"
   viewBox="0 0 230.68749 105.1994"
   version="1.1"
   id="svg6065"
   inkscape:version="0.92.2 (5c3e80d, 2017-08-06)"
   sodipodi:docname="intersection-preview.svg">
  <defs
     id="defs6059">
    <inkscape:path-effect
       effect="spiro"
       id="path-effect6703"
       is_visible="true" />
  </defs>
  <sodipodi:namedview
     id="base"
     pagecolor="#ffffff"
     bordercolor="#666666"
     borderopacity="1.0"
     inkscape:pageopacity="0.0"
     inkscape:pageshadow="2"
     inkscape:zoom="0.7"
     inkscape:cx="175.91877"
     inkscape:cy="297.39374"
     inkscape:document-units="mm"
     inkscape:current-layer="layer1"
     showgrid="false"
     fit-margin-top="0"
     fit-margin-left="0"
     fit-margin-right="0"
     fit-margin-bottom="0"
     inkscape:window-width="1778"
     inkscape:window-height="964"
     inkscape:window-x="112"
     inkscape:window-y="128"
     inkscape:window-maximized="0" />
  <metadata
     id="metadata6062">
    <rdf:RDF>
      <cc:Work
         rdf:about="">
        <dc:format>image/svg+xml</dc:format>
        <dc:type
           rdf:resource="http://purl.org/dc/dcmitype/StillImage" />
        <dc:title />
      </cc:Work>
    </rdf:RDF>
  </metadata>
  <g
     inkscape:label="Layer 1"
     inkscape:groupmode="layer"
     id="layer1"
     transform="translate(111.24702,-60.008928)">
    <path
       style="fill:#440154;fill-opacity:1;fill-rule:evenodd;stroke:#440154;stroke-width:0.3058157px;stroke-linecap:butt;stroke-linejoin:miter;stroke-opacity:1"
       d="m -107.17508,136.85704 9.888972,-2.49944 4.009044,-0.17852 3.207234,0.53559 11.358956,3.39209 7.884451,0.89266 4.009041,-1.42825 4.810853,-3.57063 3.741771,-4.10622 5.612662,-1.42824 10.958049,-4.28475 7.082645,-1.78532 12.027127,-9.46214 3.875408,-32.492669 7.750817,-1.071189 3.3408684,0.357063 5.8799297,2.677966 5.078121,1.606776 5.0781209,0.714126 7.349912,2.499441 -0.668174,9.283611 -16.7043452,-4.641805 -6.5481034,-3.035029 -2.9399644,-0.357063 -8.953529,3.035029 -3.608139,31.957073 -10.824416,7.14125 -5.479026,0.89266 -11.759859,3.39209 -7.617182,3.57062 -3.474503,3.74916 -6.548104,3.21356 -11.759858,-1.07119 -11.358954,-3.21356 -4.276312,-0.17853 -10.289873,1.96384 z"
       id="path6148"
       inkscape:connector-curvature="0"
       sodipodi:nodetypes="ccccccccccccccccccccccccccccccccccccc" />
    <path
       style="fill:#2f6c8e;fill-opacity:1;fill-rule:evenodd;stroke:none;stroke-width:0.3058157px;stroke-linecap:butt;stroke-linejoin:miter;stroke-opacity:1"
       d="m -107.17508,147.39038 0.13364,-4.46328 10.289875,-1.96384 4.276312,0.17853 11.358952,3.21356 11.759858,1.07119 6.548104,-3.21356 3.474503,-3.74916 7.617182,-3.57062 11.759859,-3.39209 5.479026,-0.89266 10.824416,-7.14125 3.608139,-31.957073 8.953529,-3.035029 2.9399644,0.357063 6.5481034,3.035029 16.7043452,4.641805 v 0 l -0.935443,4.284755 -11.6262245,-6.248595 -12.8289375,-2.320902 -10.557146,3.570629 -3.608138,34.456508 -11.75986,6.07007 -12.962572,3.39209 -10.69078,4.6418 -2.138156,3.21356 -7.349914,3.92769 -13.630746,-1.24971 -10.69078,-3.21357 -4.142676,0.17854 z"
       id="path6150"
       inkscape:connector-curvature="0" />
    <path
       style="fill:#44bf70;fill-opacity:1;fill-rule:evenodd;stroke:#44bf70;stroke-width:0.3058157px;stroke-linecap:butt;stroke-linejoin:miter;stroke-opacity:1"
       d="m -107.17508,159.70904 v -12.31866 l 13.497111,-0.35706 10.69078,3.21357 13.630746,1.24971 7.349914,-3.92769 2.138156,-3.21356 10.69078,-4.6418 12.962572,-3.39209 11.75986,-6.07007 3.608138,-34.456508 10.557146,-3.570629 12.8289375,2.320902 11.6262245,6.248595 -1.069078,11.24746 -23.519718,-8.21243 -2.672696,-0.17854 -9.488068,9.28363 -3.207234,28.92204 -10.289876,4.99888 -6.548104,-0.17853 -8.953529,3.57063 -8.552624,4.82034 -2.672697,3.21355 -6.414468,3.21357 -8.018087,-1.42825 -8.552624,0.71412 -6.949006,-2.8565 -4.944488,-0.17852 -4.810848,1.96384 z"
       id="path6152"
       inkscape:connector-curvature="0" />
    <path
       style="fill:#3b528b;fill-opacity:1;fill-rule:evenodd;stroke:#3b528b;stroke-width:0.3058157px;stroke-linecap:butt;stroke-linejoin:miter;stroke-opacity:1"
       d="m 17.481399,74.894879 1.322916,-9.594286 6.047619,1.767368 20.410715,14.012712 3.401785,25.626837 3.590774,2.7773 6.236607,4.41842 10.016368,9.3418 5.480656,2.39858 3.401785,3.15601 10.205357,5.30211 10.48884,-1.00994 8.693449,-3.78721 10.01637,1.00992 -0.0945,9.21557 -10.01637,-0.75745 -18.048364,4.0397 -10.299851,-4.79714 -3.874257,-4.16594 -5.764135,-2.65106 L 49.98735,116.93301 46.680059,92.316087 24.662946,77.419688 Z"
       id="path6697"
       inkscape:connector-curvature="0" />
    <path
       style="fill:#fde725;fill-opacity:1;fill-rule:evenodd;stroke:#fde725;stroke-width:0.3058157px;stroke-linecap:butt;stroke-linejoin:miter;stroke-opacity:1"
       d="m 15.686012,91.179917 1.795387,-16.285041 7.181547,2.52481 22.017113,14.896401 3.307291,24.616923 18.709812,14.26517 5.764136,2.65106 3.874256,4.16594 10.299851,4.79714 18.048365,-4.0397 10.01637,0.75745 -0.0945,10.09924 -9.07143,0.12625 -16.914429,4.16593 -9.260417,-2.27232 -6.425594,-6.94323 -10.110864,-5.04964 -4.819198,-4.29217 -8.220979,-3.78723 0.09449,-6.31202 -1.889882,-8.33187 -1.228423,-7.57445 -14.835563,-11.235414 -10.205358,-5.42834 z"
       id="path6699"
       inkscape:connector-curvature="0" />
    <path
       style="fill:none;fill-rule:evenodd;stroke:#000000;stroke-width:2;stroke-linecap:round;stroke-linejoin:miter;stroke-miterlimit:4;stroke-dasharray:none;stroke-opacity:1"
       d="m -56.587077,62.29308 c 14.98078,25.755454 37.711362,46.93577 64.459162,60.06293 18.50369,9.08116 38.634453,14.3019 58.72984,18.88768 13.587548,3.10069 27.235043,5.93868 40.932285,8.51187"
       id="path6701"
       inkscape:connector-curvature="0"
       inkscape:path-effect="#path-effect6703"
       inkscape:original-d="m -56.587077,62.29308 c 25.16037,23.89816 29.560082,49.59321 64.459162,60.06293 14.52785,4.35836 43.70793,17.21858 58.72984,18.88768 2.42153,0.26906 43.158515,12.02409 40.932285,8.51187"
       sodipodi:nodetypes="cssc" />
    <path
       style="fill:none;fill-rule:evenodd;stroke:#000000;stroke-width:1;stroke-linecap:butt;stroke-linejoin:miter;stroke-miterlimit:4;stroke-dasharray:none;stroke-opacity:1"
       d="M -110.74702,60.008928 V 164.70833 h 230.18749"
       id="path6705"
       inkscape:connector-curvature="0" />
  </g>
</svg>
