
<?xml version="1.0" encoding="utf-8"?>
<!-- Generator: Adobe Illustrator 26.0.3, SVG Export Plug-In . SVG Version: 6.00 Build 0)  -->
<svg version="1.1" id="Layer_1" xmlns="http://www.w3.org/2000/svg" xmlns:xlink="http://www.w3.org/1999/xlink" x="0px" y="0px"
	 viewBox="0 0 150 150" style="enable-background:new 0 0 150 150;" xml:space="preserve">
<style type="text/css">
	.st1{fill:none;stroke:#006aa0;stroke-miterlimit:10;}
</style>
<line x1="12" y1="42" x2="143" y2="42" stroke="#e1e1e1" stroke-width="0.5"/>
  <line x1="12" y1="72" x2="143" y2="72" stroke="#e1e1e1" stroke-width="0.5"/>
  <line x1="12" y1="102" x2="143" y2="102" stroke="#e1e1e1" stroke-width="0.5"/>
  <line x1="42" y1="12" x2="42" y2="142" stroke="#e1e1e1" stroke-width="0.5"/>
  <line x1="82" y1="12" x2="82" y2="142" stroke="#e1e1e1" stroke-width="0.5"/>
  <line x1="122" y1="12" x2="122" y2="142" stroke="#e1e1e1" stroke-width="0.5"/>
  <polyline points="12,12 12,142 143,142" fill="none" stroke="#626467" stroke-width="0.8"/>
<polyline class="st1" stroke-width="3.0" points="13.7,20.3 17.8,41.3 118.4,55.9 38.3,72 95.3,81.9 25.7,109.3 136.1,121.1 "/>
<polyline class="st1" stroke-width="3.0" points="15.6,20.3 19.6,38.7 131.5,55.5 54.9,70.7 127.3,84.9 40.9,107.6 133.7,117.9 "/>
<polyline class="st1" stroke-width="3.0" points="18,20.3 53.4,31.9 21.1,36.9 137.4,55 31.6,75 133.7,85.6 33.3,108.5 136.1,124.4 "/>
</svg>