<svg viewBox="0 0 150 150" xmlns="http://www.w3.org/2000/svg">
  <line x1="12" y1="42" x2="143" y2="42" stroke="#e1e1e1" stroke-width="0.5"/>
  <line x1="12" y1="72" x2="143" y2="72" stroke="#e1e1e1" stroke-width="0.5"/>
  <line x1="12" y1="102" x2="143" y2="102" stroke="#e1e1e1" stroke-width="0.5"/>
  <line x1="42" y1="12" x2="42" y2="142" stroke="#e1e1e1" stroke-width="0.5"/>
  <line x1="82" y1="12" x2="82" y2="142" stroke="#e1e1e1" stroke-width="0.5"/>
  <line x1="122" y1="12" x2="122" y2="142" stroke="#e1e1e1" stroke-width="0.5"/>
  <polyline points="12,12 12,142 143,142" fill="none" stroke="#626467" stroke-width="0.8"/>
  <!-- Fan 1 (teal): outer band (P5–P95), then inner band (P25–P75) overlap darkens centre -->
  <path fill="#cfe7e9" fill-opacity="0.6" d="M12,105 C55,100 95,88 143,75 L143,15 C95,40 55,68 12,95 Z"/>
  <path fill="#cfe7e9" fill-opacity="0.6" d="M12,102 C55,93 95,76 143,60 L143,30 C95,54 55,76 12,98 Z"/>
  <path fill="none" stroke="#206f77" stroke-width="1.5" d="M12,100 C55,86 95,62 143,44"/>
  <!-- Fan 2 (green): outer band (P5–P95), then inner band (P25–P75) -->
  <path fill="#d2f0d2" fill-opacity="0.6" d="M12,132 C55,128 95,120 143,114 L143,62 C95,80 55,104 12,122 Z"/>
  <path fill="#d2f0d2" fill-opacity="0.6" d="M12,129 C55,124 95,116 143,104 L143,72 C95,90 55,112 12,125 Z"/>
  <path fill="none" stroke="#207720" stroke-width="1.5" d="M12,127 C55,118 95,98 143,88"/>
</svg>