<svg xmlns="http://www.w3.org/2000/svg" preserveAspectRatio="none" viewBox="0 0 145.6 65.1">
  <path fill="none" stroke="#000" stroke-width=".3" d="M0 0v65h146"/>
  <path fill="#004eff" fill-opacity=".3" fill-rule="evenodd" d="M146 0c-1 2-18 12-21 14l-8 6-11 5-9 2-15 5-9 3c-9 4-16 10-24 15-8 4-17 2-25 4L9 60c-3 1-7 2-9 5l42-7h10l15-4 23-5 13-4 7-2 11-4 9-3 8-2 8-4z"/>
  <path fill="#004eff" fill-opacity=".3" fill-rule="evenodd" d="M146 0c0 7-6 9-9 11l-13 9-13 6-9 4c-6 1-8 3-13 5l-13 3-22 12c-7 4-18 4-26 6-5 1-11 1-16 4-3 1-10 2-12 5l42-9c10 0 18-4 27-6l23-5 11-4 10-3 11-5c13-2 15-9 22-13z"/>
  <path fill="none" stroke="#0333ff" stroke-width=".3" d="m0 65 5-2 18-5 12-2c12-3 15-1 19-3l15-6 14-5 15-4c9-3 18-6 24-11l8-4 16-9"/>
</svg>