<?xml version="1.0" encoding="UTF-8"?>
<svg xmlns="http://www.w3.org/2000/svg" version="1.1" viewBox="0 0 150 150">
  <defs>
    <style>
      .cls-1 {
        stroke: #626467;
      }

      .cls-1, .cls-2, .cls-3, .cls-4, .cls-5, .cls-6, .cls-7, .cls-8, .cls-9, .cls-10, .cls-11, .cls-12, .cls-13, .cls-14, .cls-15, .cls-16, .cls-17 {
        fill: none;
        stroke-miterlimit: 10;
      }

      .cls-2 {
        stroke-dasharray: .98 .98;
      }

      .cls-2, .cls-3, .cls-4, .cls-5, .cls-6, .cls-7, .cls-8, .cls-9, .cls-10, .cls-11, .cls-12, .cls-13, .cls-14, .cls-15, .cls-16, .cls-17 {
        stroke-width: .25px;
      }

      .cls-2, .cls-5, .cls-7, .cls-9, .cls-10, .cls-17 {
        stroke: #2db34a;
      }

      .cls-18 {
        fill: #95c93d;
        opacity: .6;
      }

      .cls-18, .cls-19 {
        isolation: isolate;
      }

      .cls-3 {
        stroke-dasharray: 3.42 1.14 1.14 1.14;
      }

      .cls-3, .cls-4, .cls-8, .cls-11, .cls-12, .cls-13, .cls-14, .cls-15 {
        stroke: #309cd7;
      }

      .cls-19 {
        fill: #309cd7;
        opacity: .46;
      }

      .cls-4 {
        stroke-dasharray: 2.56 .85 .85 .85;
      }

      .cls-5 {
        stroke-dasharray: 2.77 .92 .92 .92;
      }

      .cls-6 {
        stroke: #03aa4b;
      }

      .cls-6, .cls-13 {
        stroke-dasharray: 3 2;
      }

      .cls-7 {
        stroke-dasharray: .92 .92;
      }

      .cls-8 {
        stroke-dasharray: 1.14 1.14;
      }

      .cls-10 {
        stroke-dasharray: 2.93 .98 .98 .98;
      }

      .cls-11 {
        stroke-dasharray: 2.97 .99 .99 .99;
      }

      .cls-12 {
        stroke-dasharray: .85 .85;
      }

      .cls-14 {
        stroke-dasharray: .99 .99;
      }

      .cls-16 {
        stroke: #0baa4b;
      }

      .cls-17 {
        stroke-dasharray: 2.95 .98 .98 .98;
      }
    </style>
  </defs>
  <!-- Generator: Adobe Illustrator 28.6.0, SVG Export Plug-In . SVG Version: 1.2.0 Build 709)  -->
  <g>
    <g id="Layer_1">
      <g id="Layer_1-2" data-name="Layer_1">
        <polyline class="cls-19" points="8.34 69.1 21.8 80.83 41.57 105.23 64.29 98.05 105.52 113.37 142.96 113.37 142.96 24.84 103.84 24.84 40.31 62.16 21.8 52.11 8.34 66.95"/>
        <g>
          <line class="cls-15" x1="8.34" y1="66.87" x2="9.35" y2="65.77"/>
          <line class="cls-8" x1="10.12" y1="64.92" x2="11.27" y2="63.66"/>
          <line class="cls-3" x1="11.66" y1="63.24" x2="20.5" y2="53.57"/>
          <polyline class="cls-15" points="20.89 53.15 21.9 52.04 23.21 52.76"/>
          <line class="cls-12" x1="23.96" y1="53.17" x2="25.08" y2="53.78"/>
          <line class="cls-4" x1="25.46" y1="53.99" x2="38.54" y2="61.16"/>
          <polyline class="cls-15" points="38.91 61.37 40.22 62.09 41.52 61.32"/>
          <line class="cls-14" x1="42.37" y1="60.82" x2="43.65" y2="60.06"/>
          <polyline class="cls-11" points="44.07 59.81 103.64 24.52 140.97 24.52"/>
          <line class="cls-15" x1="141.46" y1="24.52" x2="142.96" y2="24.52"/>
        </g>
        <polyline class="cls-13" points="8.34 69.1 21.11 80.71 41.56 105.71 64.29 98.29 105.3 113.61 142.96 113.61"/>
        <polyline class="cls-15" points="8.34 68.5 22.19 64.68 40.04 81.42 62.01 74.01 103.35 64.68 142.96 64.68"/>
        <polyline class="cls-18" points="8.34 61.72 21.8 73.45 47.38 89.05 61.45 108.91 81.96 104.65 142.96 105.99 142.96 26.98 86.87 30.8 48.58 52.51 27.31 45.64 8.34 59.57"/>
        <g>
          <line class="cls-9" x1="8.34" y1="59.49" x2="9.55" y2="58.61"/>
          <line class="cls-2" x1="10.33" y1="58.03" x2="11.52" y2="57.17"/>
          <line class="cls-10" x1="11.91" y1="56.88" x2="25.7" y2="46.81"/>
          <polyline class="cls-9" points="26.1 46.52 27.31 45.64 28.74 46.1"/>
          <line class="cls-7" x1="29.61" y1="46.38" x2="30.93" y2="46.81"/>
          <line class="cls-5" x1="31.37" y1="46.95" x2="46.72" y2="51.91"/>
          <polyline class="cls-9" points="47.15 52.05 48.58 52.51 49.89 51.77"/>
          <line class="cls-2" x1="50.74" y1="51.28" x2="52.02" y2="50.56"/>
          <polyline class="cls-17" points="52.45 50.32 86.87 30.8 140.98 27.12"/>
          <line class="cls-9" x1="141.47" y1="27.08" x2="142.96" y2="26.98"/>
        </g>
        <polyline class="cls-6" points="8.34 61.72 21.11 73.33 47.38 89.05 61.45 108.91 82.83 104.67 142.96 106.23"/>
        <polyline class="cls-16" points="8.34 61.13 22.19 57.3 49.95 72.04 66.96 71.05 87.75 67.95 142.96 67.95"/>
        <polyline class="cls-1" points="142.96 144.47 7.04 144.47 7.04 8.57"/>
      </g>
    </g>
  </g>
</svg>