<svg viewBox="0 0 150 150" xmlns="http://www.w3.org/2000/svg">
  <line x1="12" y1="72" x2="143" y2="72" stroke="#e1e1e1" stroke-width="0.5"/>
  <line x1="12" y1="107" x2="143" y2="107" stroke="#e1e1e1" stroke-width="0.5"/>
  <!-- Grouped bars: each bin has teal bar (left) + green bar (right), 7px each, 1px gap -->
  <!-- Series 1 (teal) at bin_x; series 2 (blue) at bin_x+8. Bins at x=12,28,44,60,76,92,108,124 -->
  <rect x="12"  y="134" width="7" height="8"   fill="#cfe7e9" stroke="#206f77" stroke-width="0.5"/>
  <rect x="28"  y="120" width="7" height="22"  fill="#cfe7e9" stroke="#206f77" stroke-width="0.5"/>
  <rect x="44"  y="92"  width="7" height="50"  fill="#cfe7e9" stroke="#206f77" stroke-width="0.5"/>
  <rect x="60"  y="52"  width="7" height="90"  fill="#cfe7e9" stroke="#206f77" stroke-width="0.5"/>
  <rect x="76"  y="12"  width="7" height="130" fill="#cfe7e9" stroke="#206f77" stroke-width="0.5"/>
  <rect x="92"  y="62"  width="7" height="80"  fill="#cfe7e9" stroke="#206f77" stroke-width="0.5"/>
  <rect x="108" y="107" width="7" height="35"  fill="#cfe7e9" stroke="#206f77" stroke-width="0.5"/>
  <rect x="124" y="132" width="7" height="10"  fill="#cfe7e9" stroke="#206f77" stroke-width="0.5"/>
  <rect x="20"  y="137" width="7" height="5"   fill="#d2f0d2" stroke="#207720" stroke-width="0.5"/>
  <rect x="36"  y="127" width="7" height="15"  fill="#d2f0d2" stroke="#207720" stroke-width="0.5"/>
  <rect x="52"  y="107" width="7" height="35"  fill="#d2f0d2" stroke="#207720" stroke-width="0.5"/>
  <rect x="68"  y="70"  width="7" height="72"  fill="#d2f0d2" stroke="#207720" stroke-width="0.5"/>
  <rect x="84"  y="32"  width="7" height="110" fill="#d2f0d2" stroke="#207720" stroke-width="0.5"/>
  <rect x="100" y="24"  width="7" height="118" fill="#d2f0d2" stroke="#207720" stroke-width="0.5"/>
  <rect x="116" y="82"  width="7" height="60"  fill="#d2f0d2" stroke="#207720" stroke-width="0.5"/>
  <rect x="132" y="124" width="7" height="18"  fill="#d2f0d2" stroke="#207720" stroke-width="0.5"/>
  <polyline points="12,12 12,142 143,142" fill="none" stroke="#626467" stroke-width="0.8"/>
</svg>