<svg viewBox="0 0 150 150" xmlns="http://www.w3.org/2000/svg">
  <polyline points="8,8 8,68 72,68" fill="none" stroke="#626467" stroke-width="0.6"/>
  <path fill="#cfe7e9" stroke="#206f77" stroke-width="0.8" d="M12,67 C20,67 22,55 28,45 C34,35 40,28 44,20 C48,28 52,38 58,48 C64,58 66,67 72,67 Z"/>
  <polyline points="81,8 81,68 145,68" fill="none" stroke="#626467" stroke-width="0.6"/>
  <path fill="#d0e8f5" stroke="#006aa0" stroke-width="0.8" d="M84,67 C90,67 92,58 96,48 C100,38 104,28 110,20 C116,28 120,40 124,50 C128,60 130,67 136,67 Z"/>
  <polyline points="8,82 8,145 72,145" fill="none" stroke="#626467" stroke-width="0.6"/>
  <path fill="#d2f0d2" stroke="#207720" stroke-width="0.8" d="M12,144 C16,144 18,136 22,124 C26,112 30,102 38,95 C46,102 50,114 54,126 C58,136 62,144 68,144 Z"/>
  <polyline points="81,82 81,145 145,145" fill="none" stroke="#626467" stroke-width="0.6"/>
  <path fill="#fde8cc" stroke="#9b4900" stroke-width="0.8" d="M84,144 C90,144 92,134 98,122 C104,110 108,102 112,95 C116,102 120,112 126,124 C132,134 136,144 140,144 Z"/>
</svg>