<svg xmlns="http://www.w3.org/2000/svg" preserveAspectRatio="none" viewBox="0 0 235.5 74.8">
  <path d="M-113-17h236v13h-236z" style="fill:#440154;stroke:#440154;stroke-width:1;" transform="translate(113 17)"/>
  <path d="M-113-4h236V8h-236z" style="fill:#3b528b;stroke:#3b528b;stroke-width:1;" transform="translate(113 17)"/>
  <path d="M-113 8h236v13h-236z" style="fill:#2f6c8e;stroke:#2f6c8e;stroke-width:1;" transform="translate(113 17)"/>
  <path d="M-113 20h236v13h-236z" style="fill:#44bf70;stroke:#44bf70;stroke-width:1;" transform="translate(113 17)"/>
  <path d="M-113 33h236v12h-236z" style="fill:#fde725;stroke:#fde725;stroke-width:1;" transform="translate(113 17)"/>
  <path d="M-113 45h236v13h-236z" style="fill:#fd9925;stroke:#fd9925;stroke-width:1;" transform="translate(113 17)"/>
  <path d="M-86-17v60M-47-16v72M1-16v35M47-15v46M86-15v60" style="fill:none;fill-rule:evenodd;stroke:#000;stroke-width:1;" transform="translate(113 17)"/>
  <path d="M-91 20h10v25h-10z" style="fill:#000;stroke:none;stroke-width:1" transform="translate(113 17)"/>
  <path d="M-52 8h10v50h-10z" style="fill:#000;stroke:none;stroke-width:1" transform="translate(113 17)"/>
  <path d="M-4 8H6v24H-4z" style="fill:#000;stroke:none;stroke-width:1" transform="translate(113 17)"/>
  <path d="M42 20h10v12H42z" style="fill:#000;stroke:none;stroke-width:1" transform="translate(113 17)"/>
  <path d="M81 8h10v37H81z" style="fill:#000;stroke:none;stroke-width:1;" transform="translate(113 17)"/>
</svg>
