<?xml version="1.0" encoding="UTF-8"?>
<svg xmlns="http://www.w3.org/2000/svg" version="1.1" viewBox="0 0 24 24">
  <defs>
    <style>
      .cls-1 {
        fill: #fff;
      }

      .cls-2 {
        fill: #231f20;
      }
    </style>
  </defs>
  <!-- Generator: Adobe Illustrator 28.7.4, SVG Export Plug-In . SVG Version: 1.2.0 Build 166)  -->
  <g>
    <g id="Layer_1">
      <g id="Layer_5">
        <g>
          <polygon class="cls-1" points="2.8 13.6 2.9 3.3 3.9 2.9 7.1 11.9 8.4 11.4 5.4 2.5 6.3 2.1 12.8 10.1 12.3 14 5.7 16.3 2.8 13.6"/>
          <path class="cls-2" d="M6.2,2.3l6.5,7.8-.5,3.8-6.5,2.3-2.8-2.7V3.4c.1,0,.9-.3.9-.3l3.2,9,1.6-.6L5.5,2.6l.7-.3M6.3,2h-.2c0,0-.7.4-.7.4h-.2c0,0,0,.3,0,.3l3,8.7-1.1.4L4.1,3v-.2c0,0-.3,0-.3,0l-.8.3h-.2c0,0,0,.2,0,.2v10.1c-.1,0-.1.1-.1.1h0c0,0,2.8,2.8,2.8,2.8h.1c0,.1.1,0,.1,0l6.5-2.3h.1c0,0,0-.2,0-.2l.5-3.8h0c0-.1,0-.2,0-.2L6.4,2.1h-.1Z"/>
        </g>
        <g>
          <rect class="cls-1" x="6.3" y="15.7" width="7.1" height="3.7" transform="translate(-5.3 4.3) rotate(-19.5)"/>
          <path class="cls-2" d="M12.5,14.7l1.1,3.2-6.5,2.3-1.1-3.2,6.5-2.3M12.7,14.4h-.2c0,0-6.5,2.4-6.5,2.4h-.2c0,0,0,.3,0,.3l1.1,3.2v.2c0,0,.3,0,.3,0l6.5-2.3h.2c0,0,0-.3,0-.3l-1.1-3.2v-.2h0Z"/>
        </g>
        <g>
          <polygon class="cls-1" points="18.1 22.1 18.1 18.9 14.9 18.9 14.9 17.1 18.1 17.1 18.1 13.9 19.9 13.9 19.9 17.1 23.1 17.1 23.1 18.9 19.9 18.9 19.9 22.1 18.1 22.1"/>
          <path class="cls-2" d="M18.2,14h1.6s0,3.2,0,3.2h3.2s0,1.6,0,1.6h-3.2s0,3.2,0,3.2h-1.6s0-3.2,0-3.2h-3.2s0-1.6,0-1.6h3.2s0-3.2,0-3.2M17.9,13.8v.2s0,3,0,3h-3s-.2,0-.2,0v.2s0,1.6,0,1.6v.2s.2,0,.2,0h3s0,3,0,3v.2s.2,0,.2,0h1.6s.2,0,.2,0v-.2s0-3,0-3h3s.2,0,.2,0v-.2s0-1.6,0-1.6v-.2s-.2,0-.2,0h-3s0-3,0-3v-.2s-.2,0-.2,0h-1.6s-.2,0-.2,0h0Z"/>
        </g>
      </g>
    </g>
  </g>
</svg>