<?xml version="1.0" encoding="UTF-8"?>
<svg xmlns="http://www.w3.org/2000/svg" version="1.1" viewBox="0 0 24 24">
  <defs>
    <style>
      .cls-1 {
        fill: #fff;
      }

      .cls-2 {
        fill: #231f20;
      }
    </style>
  </defs>
  <!-- Generator: Adobe Illustrator 28.7.4, SVG Export Plug-In . SVG Version: 1.2.0 Build 166)  -->
  <g>
    <g id="Layer_1">
      <g id="Layer_5">
        <g>
          <polygon class="cls-1" points="2.8 13.6 2.9 3.3 3.9 2.9 7.1 11.9 8.4 11.4 5.3 2.5 6.2 2.1 12.8 10.1 12.3 14 5.7 16.3 2.8 13.6"/>
          <path class="cls-2" d="M6.2,2.3l6.5,7.8-.5,3.8-6.5,2.3-2.8-2.7V3.4c.1,0,.9-.3.9-.3l3.2,9,1.6-.6L5.5,2.6l.7-.3M6.3,2h-.2c0,0-.7.4-.7.4h-.2c0,0,0,.3,0,.3l3,8.7-1.1.4L4,3v-.2c0,0-.3,0-.3,0l-.8.3h-.2c0,0,0,.2,0,.2v10.1c-.1,0-.1.1-.1.1h0c0,0,2.8,2.8,2.8,2.8h.1c0,.1.1,0,.1,0l6.5-2.3h.1c0,0,0-.2,0-.2l.5-3.8h0c0-.1,0-.2,0-.2L6.4,2.1h-.1Z"/>
        </g>
        <g>
          <rect class="cls-1" x="6.3" y="15.7" width="7.2" height="3.7" transform="translate(-5.3 4.3) rotate(-19.6)"/>
          <path class="cls-2" d="M12.5,14.7l1.1,3.2-6.5,2.3-1.1-3.2,6.5-2.3M12.7,14.4h-.2c0,0-6.5,2.4-6.5,2.4h-.2c0,0,0,.3,0,.3l1.1,3.2v.2c0,0,.3,0,.3,0l6.5-2.3h.2c0,0,0-.3,0-.3l-1.1-3.2v-.2h0Z"/>
        </g>
        <g>
          <polygon class="cls-1" points="18.1 22.1 18.1 20.2 16.7 21.6 15.4 20.2 16.7 18.9 14.9 18.9 14.9 17.1 16.8 17.1 15.4 15.7 16.7 14.4 18.1 15.7 18.1 13.9 19.9 13.9 19.9 15.7 21.2 14.4 22.5 15.7 21.2 17.1 23.1 17.1 23.1 18.9 21.3 18.9 22.6 20.2 21.3 21.5 19.9 20.2 19.9 22.1 18.1 22.1"/>
          <path class="cls-2" d="M19.8,14v2l1.4-1.4,1.1,1.1-1.4,1.5h2.1v1.6h-2l1.4,1.4-1.1,1.1-1.5-1.5v2.1h-1.6v-2.1l-1.5,1.5-1.1-1.2,1.4-1.4h-2v-1.6h2.1l-1.5-1.5,1.1-1.1,1.5,1.5v-2h1.6M20,13.8h-2.1v1.7l-1-1-.2-.2-.2.2-1.1,1.1-.2.2.2.2,1.1,1.1h-1.8v2.1h1.6l-1,1-.2.2.2.2,1.1,1.2.2.2.2-.2,1.1-1.1v1.7h2.1v-1.8l1,1,.2.2.2-.2,1.1-1.1.2-.2-.2-.2-1-1h1.7v-2.1h-1.8l1-1.1.2-.2-.2-.2-1.1-1.1-.2-.2-.2.2-1,1v-1.6h0Z"/>
        </g>
      </g>
    </g>
  </g>
</svg>