<?xml version="1.0" encoding="utf-8"?>
<!-- Generator: Adobe Illustrator 26.0.3, SVG Export Plug-In . SVG Version: 6.00 Build 0)  -->
<svg version="1.1" id="Layer_1" xmlns="http://www.w3.org/2000/svg" xmlns:xlink="http://www.w3.org/1999/xlink" x="0px" y="0px"
	 viewBox="0 0 24 24" style="enable-background:new 0 0 24 24;" xml:space="preserve">
<style type="text/css">
	.st0{fill:#FFFFFF;stroke:#000000;stroke-width:0.5;stroke-miterlimit:10;}
</style>
<g id="Layer_5">
	<polygon class="st0" points="2.8,4.1 2,4.4 2,14.5 4.9,17.1 11.4,14.8 11.8,10.9 5.2,3.3 4.5,3.6 7.7,12.5 6.2,13.1 	"/>
	<rect x="5.6" y="16.7" transform="matrix(0.9374 -0.3482 0.3482 0.9374 -5.8544 4.2988)" class="st0" width="6.9" height="3.4"/>
	<path class="st0" d="M13,3.8"/>
</g>
<polygon class="st0" points="21.9,18.9 20.8,18.9 21.6,18.1 20.1,16.7 19.4,17.5 19.4,16.4 17.4,16.4 17.4,17.5 16.6,16.7 
	15.2,18.1 16,18.9 14.9,18.9 14.9,20.9 16,20.9 15.2,21.6 16.6,23.1 17.4,22.3 17.4,23.4 19.4,23.4 19.4,22.3 20.1,23.1 21.6,21.6 
	20.8,20.9 21.9,20.9 "/>
</svg>
