<?xml version="1.0" encoding="UTF-8"?>
<svg xmlns="http://www.w3.org/2000/svg" version="1.1" viewBox="0 0 24 24">
  <defs>
    <style>
      .cls-1 {
        fill: #fff;
      }

      .cls-2 {
        fill: #231f20;
      }

      .cls-3 {
        display: none;
      }
    </style>
  </defs>
  <!-- Generator: Adobe Illustrator 28.7.4, SVG Export Plug-In . SVG Version: 1.2.0 Build 166)  -->
  <g>
    <g id="Layer_1">
      <g id="Layer_5">
        <g>
          <polygon class="cls-1" points="2.8 13.6 2.9 3.3 3.9 2.9 7.1 11.9 8.4 11.4 5.3 2.5 6.2 2.1 12.8 10.1 12.3 14 5.7 16.3 2.8 13.6"/>
          <path class="cls-2" d="M6.2,2.3l6.5,7.8-.5,3.8-6.5,2.3-2.8-2.7V3.4c.1,0,.9-.3.9-.3l3.2,9,1.6-.6L5.5,2.6l.7-.3M6.3,2h-.2c0,0-.7.4-.7.4h-.2c0,0,0,.3,0,.3l3,8.7-1.1.4L4,3v-.2c0,0-.3,0-.3,0l-.8.3h-.2c0,0,0,.2,0,.2v10.1c-.1,0-.1.1-.1.1h0c0,0,2.8,2.8,2.8,2.8h.1c0,.1.1,0,.1,0l6.5-2.3h.1c0,0,0-.2,0-.2l.5-3.8h0c0-.1,0-.2,0-.2L6.4,2.1h-.1Z"/>
        </g>
        <g>
          <rect class="cls-1" x="6.3" y="15.7" width="7.2" height="3.7" transform="translate(-5.3 4.3) rotate(-19.6)"/>
          <path class="cls-2" d="M12.5,14.7l1.1,3.2-6.5,2.3-1.1-3.2,6.5-2.3M12.7,14.4h-.2c0,0-6.5,2.4-6.5,2.4h-.2c0,0,0,.3,0,.3l1.1,3.2v.2c0,0,.3,0,.3,0l6.5-2.3h.2c0,0,0-.3,0-.3l-1.1-3.2v-.2h0Z"/>
        </g>
        <g>
          <rect class="cls-1" x="14.9" y="18.1" width="7.2" height="1.8"/>
          <path class="cls-2" d="M22,18.2v1.6h-7v-1.6h7M22.2,18h-7.5v2.1h7.5v-2.1h0Z"/>
        </g>
        <g class="cls-3">
          <rect class="cls-1" x="18.1" y="14.9" width="1.8" height="8.2"/>
          <path class="cls-2" d="M19.8,15v8h-1.6v-8h1.6M20,14.8h-2.1v8.5h2.1v-8.5h0Z"/>
        </g>
      </g>
    </g>
  </g>
</svg>