<?xml version="1.0" encoding="utf-8"?>
<!-- Generator: Adobe Illustrator 26.0.3, SVG Export Plug-In . SVG Version: 6.00 Build 0)  -->
<svg version="1.1" id="Layer_1" xmlns="http://www.w3.org/2000/svg" xmlns:xlink="http://www.w3.org/1999/xlink" x="0px" y="0px"
	 viewBox="0 0 150 150" style="enable-background:new 0 0 150 150;" xml:space="preserve">
<style type="text/css">
	.st0{fill:none;stroke:#626467;stroke-miterlimit:10;}
	.st1{fill:#DD5E5E;stroke:#9B2323;stroke-miterlimit:10;}
</style>
<g>
	<g id="Layer_1_00000052067311571168209100000005420592435327839109_">
		<g id="Layer_1-2_00000061461743095811408130000003277939633772942527_">
			<g id="Layer_1-2">
				<polyline class="st0" points="62.5,60.9 10.2,60.9 10.2,8.6 				"/>
			</g>
		</g>
		<g id="Layer_1_00000114788319049813595280000010446898157045703841_">
			<g id="Layer_1-2_00000030455330820971206160000007405987287783343806_">
				<g id="Layer_1-2_00000178165254702774032120000012068206040950468767_">
					<polyline class="st0" points="139.8,60.9 87.4,60.9 87.4,8.6 					"/>
				</g>
			</g>
		</g>
		<g id="Layer_1_00000102538659648041826460000014245632947363304093_">
			<g id="Layer_1-2_00000096770619955662402080000008728763590206750351_">
				<g id="Layer_1-2_00000146481075169655897070000012150152801094482353_">
					<polyline class="st0" points="62.5,134.5 10.2,134.5 10.2,82.2 					"/>
				</g>
			</g>
		</g>
		<g id="Layer_1_00000096775391188015427480000004147442084981515137_">
			<g id="Layer_1-2_00000171695347708988962810000001473604593033051306_">
				<g id="Layer_1-2_00000039111564884197014220000007036841052774002324_">
					<polyline class="st0" points="139.8,134.5 87.4,134.5 87.4,82.2 					"/>
				</g>
			</g>
		</g>
		<path class="st1" d="M62.3,56.2c-0.8-12.5-4.6-17.4-7.9-19.6c-4.4-2.9-7.6-0.8-15.1-5c-0.7-0.4-3.9-2.6-10.1-7
			c-4.1-2.9-7-5-10.5-4.4c-1.6,0.3-2.8,1-3.5,1.5v34.5"/>
		<path class="st1" d="M92.1,57v-22c5.2-9.3,13-15.5,19.5-14.8c4.4,0.5,8.5,2.8,8.5,2.8c3,1.7,3.3,2.9,7,4.8c4,2.1,6.8,2.4,7.4,2.4
			c2.2,0.2,4-0.1,5.2-0.4V57"/>
		<path class="st1" d="M15.4,130.7l-0.2-48.4c4.3-1,7.5-0.6,9.6,0c2.3,0.7,2.3,1.2,8.5,4.1c5.8,2.8,7.1,2.9,8.1,2.8
			c2.3-0.1,3.2-0.9,5.9-0.7c2.2,0.2,3.7,0.9,4.6,1.3c1.2,0.6,4.1,2,6.1,5c1.1,1.7,0.8,2.3,2.4,6.1c0.8,2,1.6,3.6,2.2,4.6v25.1"/>
		<path class="st1" d="M92.4,130.7L92.2,116c-0.1-1.9-0.7-16,6.1-23.6c1.9-2.1,5.1-4.5,7.4-6.3c3.6-2.8,5-3.4,6.5-3.7
			c0.9-0.2,4.6-0.9,7.2,1.1c2.5,2,1.3,4.4,3.9,6.8c1.2,1.1,3,1.5,6.5,2.4c4.6,1.2,6.3,0.9,7.9,2.4c1.3,1.2,1.8,2.9,2,4.1v31.4"/>
	</g>
</g>
</svg>
