<?xml version="1.0" encoding="utf-8"?>
<!-- Generator: Adobe Illustrator 26.0.3, SVG Export Plug-In . SVG Version: 6.00 Build 0)  -->
<svg version="1.1" id="Layer_1" xmlns="http://www.w3.org/2000/svg" xmlns:xlink="http://www.w3.org/1999/xlink" x="0px" y="0px"
	 viewBox="0 0 150 150" style="enable-background:new 0 0 150 150;" xml:space="preserve">
<style type="text/css">
	.st1{fill:none;stroke:#006aa0;stroke-width:5;stroke-miterlimit:10;}
	.st2{fill:none;stroke:#006aa0;stroke-width:5;stroke-miterlimit:10;stroke-dasharray:4.8467,4.8467;}
</style>
<line x1="12" y1="42" x2="143" y2="42" stroke="#e1e1e1" stroke-width="0.5"/>
<line x1="12" y1="72" x2="143" y2="72" stroke="#e1e1e1" stroke-width="0.5"/>
<line x1="12" y1="102" x2="143" y2="102" stroke="#e1e1e1" stroke-width="0.5"/>
<line x1="42" y1="12" x2="42" y2="142" stroke="#e1e1e1" stroke-width="0.5"/>
<line x1="82" y1="12" x2="82" y2="142" stroke="#e1e1e1" stroke-width="0.5"/>
<line x1="122" y1="12" x2="122" y2="142" stroke="#e1e1e1" stroke-width="0.5"/>
<polyline points="12,12 12,142 143,142" fill="none" stroke="#626467" stroke-width="0.8"/>
<g>
	<g>
		<path class="st1" d="M15.4,39.5c0.8,0.2,1.6,0.3,2.5,0.5"/>
		<path class="st2" d="M22.6,41C51.7,47.7,65.1,60,72,70.3c8.9,13.3,7.8,24.7,19.3,37.3c10.7,11.7,25.2,16.5,36.7,18.6"/>
		<path class="st1" d="M130.4,126.6c0.8,0.1,1.7,0.2,2.5,0.4"/>
	</g>
</g>
</svg>
