<svg viewBox="0 0 150 150" xmlns="http://www.w3.org/2000/svg">
  <rect x="6" y="6" width="138" height="138" fill="#d0e8f5"/>
  <path fill="#eaf8fa" d="M15,15 C40,10 80,8 120,15 C138,20 143,40 143,75 C143,110 130,135 100,140 C70,145 30,138 15,120 C5,105 6,75 8,50 C10,30 8,18 15,15 Z"/>
  <path fill="#cfe7e9" d="M25,25 C48,18 85,18 118,28 C133,35 136,55 135,78 C134,105 118,128 90,132 C62,136 35,125 22,105 C12,88 15,62 18,44 C20,32 20,28 25,25 Z"/>
  <path fill="#91c8ce" d="M38,40 C58,32 92,32 112,45 C124,55 124,72 122,90 C118,112 102,125 80,126 C55,127 40,112 32,90 C24,70 28,52 38,40 Z"/>
  <path fill="#5a9fa7" d="M52,56 C65,48 90,50 104,62 C112,72 110,90 105,105 C98,118 80,122 65,115 C48,108 42,88 44,72 C46,62 50,58 52,56 Z"/>
  <path fill="#206f77" d="M68,70 C76,64 90,68 96,80 C100,90 96,104 86,108 C72,112 60,102 60,88 C60,78 64,74 68,70 Z"/>
  <path fill="none" stroke="#fff" stroke-width="0.8" d="M15,15 C40,10 80,8 120,15 C138,20 143,40 143,75 C143,110 130,135 100,140 C70,145 30,138 15,120 C5,105 6,75 8,50 C10,30 8,18 15,15 Z"/>
  <path fill="none" stroke="#fff" stroke-width="0.8" d="M25,25 C48,18 85,18 118,28 C133,35 136,55 135,78 C134,105 118,128 90,132 C62,136 35,125 22,105 C12,88 15,62 18,44 C20,32 20,28 25,25 Z"/>
  <path fill="none" stroke="#fff" stroke-width="0.8" d="M38,40 C58,32 92,32 112,45 C124,55 124,72 122,90 C118,112 102,125 80,126 C55,127 40,112 32,90 C24,70 28,52 38,40 Z"/>
  <path fill="none" stroke="#fff" stroke-width="0.8" d="M52,56 C65,48 90,50 104,62 C112,72 110,90 105,105 C98,118 80,122 65,115 C48,108 42,88 44,72 C46,62 50,58 52,56 Z"/>
  <path fill="none" stroke="#fff" stroke-width="0.8" d="M68,70 C76,64 90,68 96,80 C100,90 96,104 86,108 C72,112 60,102 60,88 C60,78 64,74 68,70 Z"/>
  <circle cx="78" cy="88" r="2.5" fill="#bc002a"/>
  <circle cx="32" cy="45" r="2" fill="#bc002a"/>
  <circle cx="118" cy="112" r="2" fill="#bc002a"/>
  <rect x="6" y="6" width="138" height="138" fill="none" stroke="#626467" stroke-width="0.8"/>
</svg>