<svg viewBox="0 0 150 150" xmlns="http://www.w3.org/2000/svg">
  <line x1="18" y1="12" x2="18" y2="138" stroke="#626467" stroke-width="1.2"/>
  <line x1="48" y1="12" x2="48" y2="138" stroke="#626467" stroke-width="1.2"/>
  <line x1="78" y1="12" x2="78" y2="138" stroke="#626467" stroke-width="1.2"/>
  <line x1="108" y1="12" x2="108" y2="138" stroke="#626467" stroke-width="1.2"/>
  <line x1="135" y1="12" x2="135" y2="138" stroke="#626467" stroke-width="1.2"/>
  <line x1="14" y1="12" x2="22" y2="12" stroke="#626467" stroke-width="0.8"/>
  <line x1="14" y1="138" x2="22" y2="138" stroke="#626467" stroke-width="0.8"/>
  <line x1="44" y1="12" x2="52" y2="12" stroke="#626467" stroke-width="0.8"/>
  <line x1="44" y1="138" x2="52" y2="138" stroke="#626467" stroke-width="0.8"/>
  <line x1="74" y1="12" x2="82" y2="12" stroke="#626467" stroke-width="0.8"/>
  <line x1="74" y1="138" x2="82" y2="138" stroke="#626467" stroke-width="0.8"/>
  <line x1="104" y1="12" x2="112" y2="12" stroke="#626467" stroke-width="0.8"/>
  <line x1="104" y1="138" x2="112" y2="138" stroke="#626467" stroke-width="0.8"/>
  <line x1="131" y1="12" x2="139" y2="12" stroke="#626467" stroke-width="0.8"/>
  <line x1="131" y1="138" x2="139" y2="138" stroke="#626467" stroke-width="0.8"/>
  <polyline fill="none" stroke="#206f77" stroke-width="3" stroke-opacity="0.8" points="18,25 48,60 78,35 108,80 135,50"/>
  <polyline fill="none" stroke="#206f77" stroke-width="3" stroke-opacity="0.8" points="18,40 48,75 78,55 108,95 135,70"/>
  <polyline fill="none" stroke="#006aa0" stroke-width="3" stroke-opacity="0.8" points="18,60 48,30 78,85 108,45 135,90"/>
  <polyline fill="none" stroke="#006aa0" stroke-width="3" stroke-opacity="0.8" points="18,80 48,45 78,100 108,60 135,110"/>
  <polyline fill="none" stroke="#207720" stroke-width="3" stroke-opacity="0.8" points="18,100 48,115 78,70 108,120 135,85"/>
  <polyline fill="none" stroke="#207720" stroke-width="3" stroke-opacity="0.8" points="18,115 48,125 78,90 108,130 135,100"/>
  <polyline fill="none" stroke="#9b4900" stroke-width="3" stroke-opacity="0.8" points="18,130 48,95 78,120 108,70 135,120"/>
  <polyline fill="none" stroke="#9b4900" stroke-width="3" stroke-opacity="0.8" points="18,120 48,85 78,110 108,55 135,105"/>
</svg>