<?xml version="1.0" encoding="utf-8"?>
<!-- Generator: Adobe Illustrator 26.0.3, SVG Export Plug-In . SVG Version: 6.00 Build 0)  -->
<svg version="1.1" id="Layer_1" xmlns="http://www.w3.org/2000/svg" xmlns:xlink="http://www.w3.org/1999/xlink" x="0px" y="0px"
	 viewBox="0 0 150 150" style="enable-background:new 0 0 150 150;" xml:space="preserve">
<style type="text/css">
	.st0{fill:none;stroke:#626467;stroke-miterlimit:10;}
	.st1{fill:none;stroke:#000000;stroke-miterlimit:10;stroke-dasharray:5;}
	.st2{fill:#10C5DD;}
</style>
<g>
	<g id="Layer_1_00000055703345533657155270000013141195410882442905_">
		<g id="Layer_1-2_00000101089553232120884100000012196768938083830666_">
			<g id="Layer_1-2">
				<polyline class="st0" points="143,144.5 7,144.5 7,8.6 				"/>
			</g>
		</g>
	</g>
</g>
<line class="st1" x1="18" y1="76.6" x2="137.5" y2="84.7"/>
<circle class="st2" cx="22.8" cy="43.9" r="2.1"/>
<circle class="st2" cx="99.9" cy="74.4" r="2.1"/>
<circle class="st2" cx="74" cy="46.7" r="2.1"/>
<circle class="st2" cx="39" cy="92.2" r="2.1"/>
<circle class="st2" cx="116.5" cy="97.2" r="2.1"/>
<circle class="st2" cx="77.1" cy="104.4" r="2.1"/>
<circle class="st2" cx="44.1" cy="70.1" r="2.1"/>
<circle class="st2" cx="99.9" cy="74.1" r="2.1"/>
<circle class="st2" cx="68.8" cy="77" r="2.1"/>
<circle class="st2" cx="127.5" cy="86.8" r="2.1"/>
<circle class="st2" cx="26.5" cy="75" r="2.1"/>
<circle class="st2" cx="53.3" cy="102.3" r="2.1"/>
<circle class="st2" cx="107.9" cy="56.9" r="2.1"/>
<circle class="st2" cx="55.4" cy="55.7" r="2.1"/>
<circle class="st2" cx="93.2" cy="90" r="2.1"/>
<circle class="st2" cx="81.4" cy="93.4" r="2.1"/>
<circle class="st2" cx="107.3" cy="104.4" r="2.1"/>
<circle class="st2" cx="125.3" cy="71.2" r="2.1"/>
</svg>
