<svg viewBox="0 0 150 150" xmlns="http://www.w3.org/2000/svg">
  <line x1="12" y1="52" x2="143" y2="52" stroke="#e1e1e1" stroke-width="0.5"/>
  <line x1="12" y1="97" x2="143" y2="97" stroke="#e1e1e1" stroke-width="0.5"/>
  <line x1="55" y1="12" x2="55" y2="142" stroke="#e1e1e1" stroke-width="0.5"/>
  <line x1="99" y1="12" x2="99" y2="142" stroke="#e1e1e1" stroke-width="0.5"/>
  <polyline points="12,12 12,142 143,142" fill="none" stroke="#626467" stroke-width="0.8"/>
  <line x1="18" y1="128" x2="138" y2="25" stroke="#20772" stroke-width="3" stroke-dasharray="5,3"/>
  <circle cx="22" cy="122" r="4" fill="#206f77"/>
  <circle cx="32" cy="115" r="4" fill="#206f77"/>
  <circle cx="40" cy="108" r="4" fill="#206f77"/>
  <circle cx="50" cy="98" r="4" fill="#206f77"/>
  <circle cx="58" cy="92" r="4" fill="#206f77"/>
  <circle cx="65" cy="88" r="4" fill="#206f77"/>
  <circle cx="72" cy="82" r="4" fill="#206f77"/>
  <circle cx="80" cy="74" r="4" fill="#206f77"/>
  <circle cx="88" cy="66" r="4" fill="#206f77"/>
  <circle cx="96" cy="60" r="4" fill="#206f77"/>
  <circle cx="105" cy="54" r="4" fill="#206f77"/>
  <circle cx="113" cy="46" r="4" fill="#206f77"/>
  <circle cx="122" cy="38" r="4" fill="#206f77"/>
  <circle cx="130" cy="32" r="4" fill="#206f77"/>
  <circle cx="44" cy="130" r="4" fill="#206f77"/>
  <circle cx="75" cy="60" r="4" fill="#206f77"/>
  <circle cx="100" cy="80" r="4" fill="#206f77"/>
</svg>