<svg viewBox="0 0 150 150" xmlns="http://www.w3.org/2000/svg">
  <rect x="5" y="5" width="42" height="140" fill="#f5f5f5" stroke="#e1e1e1" stroke-width="0.8"/>
  <rect x="53" y="5" width="42" height="140" fill="#f5f5f5" stroke="#e1e1e1" stroke-width="0.8"/>
  <rect x="101" y="5" width="44" height="140" fill="#f5f5f5" stroke="#e1e1e1" stroke-width="0.8"/>
  <rect x="5" y="5" width="42" height="12" fill="#206f77"/>
  <rect x="53" y="5" width="42" height="12" fill="#206f77"/>
  <rect x="101" y="5" width="44" height="12" fill="#206f77"/>
  <!-- Panel 1: wavy GR log -->
  <path fill="#cfe7e9" stroke="#206f77" stroke-width="0.8" d="M9,145 L9,35 L13,48 L17,28 L21,42 L25,22 L29,38 L33,20 L37,32 L41,18 L45,25 L45,145 Z"/>
  <!-- Panel 2: stepped resistivity -->
  <polyline fill="none" stroke="#9b4900" stroke-width="1.2" points="57,28 64,28 64,42 70,42 70,34 76,34 76,55 82,55 82,30 88,30 88,48 94,48 94,38"/>
  <!-- Panel 3: lithology bands -->
  <rect x="102" y="17" width="42" height="22" fill="#eaf8fa"/>
  <rect x="102" y="39" width="42" height="18" fill="#cfe7e9"/>
  <rect x="102" y="57" width="42" height="28" fill="#d0e8f5"/>
  <rect x="102" y="85" width="42" height="20" fill="#d2f0d2"/>
  <rect x="102" y="105" width="42" height="39" fill="#fde8cc"/>
  <line x1="102" y1="39" x2="144" y2="39" stroke="#e1e1e1" stroke-width="0.5"/>
  <line x1="102" y1="57" x2="144" y2="57" stroke="#e1e1e1" stroke-width="0.5"/>
  <line x1="102" y1="85" x2="144" y2="85" stroke="#e1e1e1" stroke-width="0.5"/>
  <line x1="102" y1="105" x2="144" y2="105" stroke="#e1e1e1" stroke-width="0.5"/>
</svg>