<?xml version="1.0" encoding="UTF-8"?>
<svg xmlns="http://www.w3.org/2000/svg" version="1.1" viewBox="0 0 150 150">
  <defs>
    <style>
      .cls-1 {
        fill: #f9f4a0;
      }

      .cls-2 {
        fill: #2bd6d6;
      }

      .cls-3 {
        fill: #d3682d;
      }

      .cls-4 {
        fill: #d38576;
      }

      .cls-5 {
        fill: #666;
      }

      .cls-6 {
        fill: #d8d32a;
      }

      .cls-7 {
        fill: #ccc;
      }

      .cls-8 {
        fill: #7685d6;
      }

      .cls-9 {
        fill: #ce8dc0;
      }
    </style>
  </defs>
  <!-- Generator: Adobe Illustrator 28.7.2, SVG Export Plug-In . SVG Version: 1.2.0 Build 154)  -->
  <g>
    <g id="Layer_1">
      <path class="cls-7" d="M8.5,6v136h43.5V6H8.5ZM50.4,140H10.1V17h40.2v123Z"/>
      <path class="cls-7" d="M55.5,6v136h43.5V6h-43.5ZM97.3,140h-40.2V17h40.2v123Z"/>
      <path class="cls-7" d="M102.7,6v136h43.5V6h-43.5ZM144.5,140h-40.2V17h40.2v123Z"/>
      <rect class="cls-5" x="14" y="10.3" width="32" height="1.7"/>
      <rect class="cls-6" x="104.9" y="18" width="39" height="39"/>
      <rect class="cls-1" x="104.9" y="57" width="39" height="17"/>
      <rect class="cls-2" x="104.9" y="74" width="39" height="27"/>
      <rect class="cls-3" x="104.9" y="101" width="39" height="8"/>
      <rect class="cls-9" x="104.9" y="109" width="39" height="30"/>
      <rect x="124" y="18" width="1" height="121"/>
      <rect x="116" y="56" width="17" height="1"/>
      <rect x="116" y="73" width="17" height="1"/>
      <rect x="116" y="100" width="17" height="1"/>
      <rect x="116" y="108" width="17" height="1"/>
      <rect x="116" y="138" width="17" height="1"/>
      <path class="cls-8" d="M32.7,138.5l-12.6-1.4,15.2-3-13.9-.8v-1s13.2-.7,13.2-.7l-14.1-1.4v-1h8.8l-13-3.9,14.3-1.8-10.2-.8,17.2-7.5-21.2-3.9v-1h7l-7-3.9,12.8-2.7-14.6-1,13.5-3.2-8.1-.9,5.8-3.2-11.6-2.4,10.7-1.8-10.8-.8v-1s12.5-1.4,12.5-1.4l-5.9-1.4,14.7-1.9-6.3-.8,6.7-2.9h-2.9v-1c0,0,6.4-1,6.4-1l-8.4-.9,7.3-5.7-8.3-1.2,7.5-2.3-7.2-1.5,3.9-1.3c-4-.4-9.1-.8-9.7-.8h-.5v-.5c-.2-.5-.2-.6,4.8-1.5l-13.4-1.6,12.5-2.1-14.9-2.2,12.3-2.3-11.6-1.9,14.9-2.2-8.2-2.3,6.3-.3-10.9-1.4,18.6-2.3-21.7-1.7,14-2.2-13.7-2,16.4-3.1-16.1-1.7,13.8-1.6-16.1-2.2,7.1-.4c0,0-.2,0-.3,0-.2,0-.8,0-.8-.5,0-.5,0-.9,10.5-2.9l-9.7-1v-1s15.9-.5,15.9-.5l-15.9-2.3v-1c.1,0,21.7,3.1,21.7,3.1v1c0,0-14.4.5-14.4.5l9.3,1-3.4.6c-3.8.7-7.8,1.5-10.5,2.1,4.5,0,12.1,0,12.2,0v1s-11.9.7-11.9.7l13.9,1.9-12.6,1.5,14,1.5-17.2,3.3,14.3,2.1-12.2,1.9,23.2,1.8-20.7,2.6,8.5,1.1v1s-5.6.3-5.6.3l6.8,1.9-13.3,2,11,1.8-12,2.2,15.1,2.2-11.9,2,13.2,1.6-3.3.6c-1.3.2-3,.5-4.4.8,3.5.3,8.5.8,8.8.8l2.4.2-5,1.6,7.3,1.6-7,2.1,6.2.9-7.2,5.6,13.6,1.5-7.5,1.1h1l-7.7,3.4,10.5,1.3-17.1,2.2,6.2,1.5-12.8,1.4,13.6.9-13.6,2.3,9,1.8-5.4,3,10.6,1.2-12.7,3,15.3,1.1-17.2,3.6,8,4.5h-5.2l19,3.5-16.5,7.2,16,1.3-19.3,2.4,15,4.5h-5.7l10.7,1.1v1s-10.7.6-10.7.6l12.8.8-16.6,3.3,6.1.7v1Z"/>
      <path class="cls-4" d="M85.7,136.4c-13.4-9-19.4-16.3-18.2-22.5.5-2.7,2.4-4.4,4.3-6.2,2.1-1.9,4.4-4,5.7-7.9,1.2-3.4,1.2-7.4-2-18.7-3.1-10.7-5.7-16.1-7.5-19.7-1.8-3.6-2.8-5.6-2.5-9.5.5-8.2,5.9-14,10.2-18.7,3.4-3.6,6-6.5,4.9-9.1-1.2-2.8-6.5-4.1-15.5-3.7v-1c9.6-.4,15,1,16.4,4.3,1.4,3.1-1.5,6.2-5.1,10.1-4.2,4.5-9.4,10.2-9.9,18.1-.2,3.6.7,5.4,2.4,9,1.8,3.6,4.4,9,7.6,19.9,3.3,11.5,3.3,15.7,2,19.3-1.4,4.1-3.9,6.3-6,8.3-1.9,1.7-3.5,3.2-4,5.6-1.1,5.7,4.9,12.9,17.8,21.5l-.6.8Z"/>
      <rect class="cls-5" x="61.6" y="10.2" width="32" height="1.7"/>
      <rect class="cls-5" x="108.4" y="10.2" width="32" height="1.7"/>
    </g>
  </g>
</svg>