<svg xmlns="http://www.w3.org/2000/svg" version="1.1" viewBox="0 0 150 150">
  <defs>
    <style>
      .cls-1 {
        fill: none;
        stroke: #626467;
      }

      .cls-1, .cls-2, .cls-3, .cls-4, .cls-5 {
        stroke-miterlimit: 10;
      }

      .cls-2, .cls-3 {
        stroke-width: 5px;
      }

      .cls-2, .cls-4 {
        fill: #f4bf19;
        stroke: #f4bf19;
      }

      .cls-3, .cls-5 {
        fill: #309cd7;
        stroke: #309cd7;
      }

      .cls-4, .cls-5 {
        stroke-width: 2px;
      }
    </style>
  </defs>
  <!-- Generator: Adobe Illustrator 28.6.0, SVG Export Plug-In . SVG Version: 1.2.0 Build 709)  -->
  <g>
    <g id="Layer_1">
      <g id="Layer_1-2" data-name="Layer_1">
        <g id="Layer_1-2">
          <polyline class="cls-1" points="143 144.5 7 144.5 7 8.6"/>
        </g>
      </g>
      <path class="cls-5" d="M96.1,90c-20.3,26.2-38.6,39.5-54.5,39.5s-23.4-19.7-23.5-19.9l-2.7,1.3c.4.9,10.6,21.6,26.2,21.6s37.3-14.7,59.1-43.6c.8-1.1,1.7-2.3,2.5-3.4-2.3,1.5-4.7,3-7.1,4.5Z"/>
      <path class="cls-5" d="M113.2,58.9c.9-.7,1.8-1.4,2.6-2,14.6-23.1,24.4-43.7,24.5-44l-2.7-1.3c-.1.2-10.6,22.5-26.2,46.5-.1.2-.2.3-.3.5.7,0,1.4,0,2.1.3Z"/>
      <circle class="cls-3" cx="16.5" cy="109.5" r="2.3"/>
      <circle class="cls-3" cx="37.9" cy="130.4" r="2.3"/>
      <circle class="cls-3" cx="84.7" cy="105.8" r="2.3"/>
      <circle class="cls-3" cx="138" cy="14" r="2.3"/>
      <g>
        <path class="cls-4" d="M44.8,101.5c-11.9,0-20.4-5.5-25.1-16.3l2.7-1.2c4,9.1,10.7,13.8,20.4,14.4,32.5,2,87.3-45.5,89.7-49.5-.2.3-.2,1,.2,1.5.5.5,1.1.6,1.5.4l-1.4-2.7c1-.5,1.7-.2,2,.1.5.4.6,1.1.4,1.8-.8,2.3-15.8,15.4-31.9,26.6-15.9,11-38.7,24.2-57.2,24.8-.5,0-.9,0-1.4,0Z"/>
        <path class="cls-2" d="M23.3,84.8c0,3-4.6,3-4.6,0,0-3,4.6-3,4.6,0Z"/>
        <path class="cls-2" d="M40.9,99.7c0,3-4.6,3-4.6,0,0-3,4.6-3,4.6,0Z"/>
        <path class="cls-2" d="M84.1,88.1c0,3-4.6,3-4.6,0,0-3,4.6-3,4.6,0Z"/>
        <path class="cls-2" d="M136.1,49.9c0,3-4.6,3-4.6,0,0-3,4.6-3,4.6,0Z"/>
        <path class="cls-2" d="M110,71.7c0,3-4.6,3-4.6,0,0-3,4.6-3,4.6,0Z"/>
      </g>
    </g>
  </g>
</svg>
