<svg viewBox="0 0 150 150" xmlns="http://www.w3.org/2000/svg">
  <rect x="6" y="6" width="138" height="138" fill="#f5f5f5" stroke="#e1e1e1" stroke-width="0.8"/>
  <!-- Geological layers -->
  <path fill="#d0e8f5" d="M6,6 L144,6 L144,32 C120,30 90,34 60,31 C30,28 16,33 6,30 Z"/>
  <path fill="#eaf8fa" d="M6,30 C16,33 30,28 60,31 C90,34 120,30 144,32 L144,58 C118,56 88,60 58,57 C28,54 16,59 6,56 Z"/>
  <path fill="#cfe7e9" d="M6,56 C16,59 28,54 58,57 C88,60 118,56 144,58 L144,85 C118,83 88,87 58,84 C28,81 16,86 6,83 Z"/>
  <path fill="#d2f0d2" d="M6,83 C16,86 28,81 58,84 C88,87 118,83 144,85 L144,110 C118,108 88,112 58,109 C28,106 16,111 6,108 Z"/>
  <path fill="#fde8cc" d="M6,108 C16,111 28,106 58,109 C88,112 118,108 144,110 L144,144 L6,144 Z"/>
  <!-- Layer borders -->
  <path fill="none" stroke="#626467" stroke-width="0.5" d="M6,30 C16,33 30,28 60,31 C90,34 120,30 144,32"/>
  <path fill="none" stroke="#626467" stroke-width="0.5" d="M6,56 C16,59 28,54 58,57 C88,60 118,56 144,58"/>
  <path fill="none" stroke="#626467" stroke-width="0.5" d="M6,83 C16,86 28,81 58,84 C88,87 118,83 144,85"/>
  <path fill="none" stroke="#626467" stroke-width="0.5" d="M6,108 C16,111 28,106 58,109 C88,112 118,108 144,110"/>
  <!-- Well bore -->
  <line x1="52" y1="6" x2="52" y2="80" stroke="#bc002a" stroke-width="2.5"/>
  <path fill="none" stroke="#bc002a" stroke-width="1.5" d="M52,80 C52,90 65,100 80,108"/>
  <circle cx="80" cy="108" r="2.5" fill="#bc002a"/>
</svg>